<?xml version="1.0" encoding="UTF-8"?>
<svg version="1.1" xmlns="http://www.w3.org/2000/svg" width="512" height="512">
<path d="M0 0 C2.41765499 -0.00435298 4.83530861 -0.00953808 7.25296021 -0.01548767 C13.11300952 -0.02744467 18.97300545 -0.03003659 24.83306548 -0.02768741 C29.60235124 -0.02589645 34.37162317 -0.02767045 39.14090729 -0.03191185 C39.82252722 -0.03250704 40.50414715 -0.03310223 41.20642222 -0.03371545 C42.59164085 -0.03492735 43.97685948 -0.03614148 45.3620781 -0.03735783 C58.32270314 -0.04820831 71.28330209 -0.04608289 84.24392858 -0.03997298 C96.06539385 -0.03480769 107.88677662 -0.04605347 119.70822558 -0.0650712 C131.88461062 -0.08450775 144.06095674 -0.09269534 156.23735738 -0.08894795 C163.05815552 -0.08704449 169.87888351 -0.08943923 176.69966888 -0.10366249 C183.11841666 -0.11630332 189.53700023 -0.11423779 195.9557457 -0.1012516 C198.29972516 -0.09889975 200.64371641 -0.10157004 202.98768234 -0.10987473 C243.28789951 -0.2422656 278.43063942 12.22978547 307.45458984 40.73168945 C309.07837069 42.32373024 310.7222306 43.89305724 312.36816406 45.4621582 C333.53024154 65.86152747 347.35681191 90.69492288 354.02832031 119.2746582 C354.20885263 120.02908455 354.38938496 120.78351089 354.57538795 121.56079865 C356.81257405 132.65946571 356.32439114 144.00176461 356.31884766 155.26879883 C356.32483889 157.70114344 356.3316458 160.13348616 356.33920288 162.56582642 C356.35498675 168.46644959 356.36130879 174.36703512 356.36242764 180.2676751 C356.36338223 185.07176125 356.3675129 189.87583436 356.37382889 194.67991638 C356.39142134 208.34209407 356.40067121 222.00424049 356.39916794 235.66642958 C356.39904807 236.76849396 356.39904807 236.76849396 356.39892578 237.89282227 C356.39884402 238.62844373 356.39876226 239.3640652 356.39867802 240.12197822 C356.39786629 252.02556679 356.41698065 263.92902848 356.44520251 275.83258039 C356.4740447 288.09596041 356.48773653 300.3592788 356.48601496 312.62269354 C356.48535482 319.49113678 356.49067991 326.35944709 356.51237106 333.2278595 C356.53266885 339.69585765 356.53179433 346.16364897 356.5173378 352.63166428 C356.51526359 354.99051195 356.51986655 357.34937765 356.53205872 359.70819473 C356.73152309 401.01102249 342.78073811 435.66661979 314.02832031 465.2746582 C313.50334961 465.82541016 312.97837891 466.37616211 312.4375 466.94360352 C289.05500581 491.4646245 256.48132706 510.90785146 221.78001332 512.369349 C219.1482028 512.40899584 216.51800611 512.41754463 213.88589478 512.4151001 C212.87918743 512.41807122 211.87248009 512.42104234 210.83526647 512.4241035 C207.46943348 512.43275945 204.10363619 512.43429614 200.73779297 512.43579102 C198.32102381 512.44042151 195.90425538 512.44544649 193.48748779 512.45083618 C186.92498751 512.46394287 180.36249462 512.47043948 173.79998446 512.47484684 C169.69498727 512.47761615 165.58999241 512.48185484 161.4849968 512.48635101 C150.09955048 512.49854138 138.71410603 512.50883976 127.32865334 512.5122261 C126.60070815 512.51244567 125.87276296 512.51266524 125.12275883 512.51289146 C124.02834744 512.51321887 124.02834744 512.51321887 122.91182673 512.5135529 C121.43356808 512.51399636 119.95530943 512.51444292 118.47705078 512.51489258 C117.37716877 512.51522472 117.37716877 512.51522472 116.25506692 512.51556358 C104.39442549 512.51950502 92.53384574 512.53694006 80.6732281 512.5602521 C68.46991805 512.58404215 56.26663885 512.5964315 44.06330526 512.59759402 C37.22229041 512.59850673 30.38135587 512.60415577 23.54036331 512.62241364 C17.09709615 512.63955031 10.65394014 512.6410104 4.21065521 512.63227463 C1.85700192 512.63150851 -0.49665979 512.63579026 -2.85029221 512.64573288 C-44.31139719 512.8104845 -78.95358232 499.07771492 -108.97167969 470.2746582 C-109.77871338 469.50847168 -109.77871338 469.50847168 -110.60205078 468.72680664 C-132.52900663 447.82375269 -147.07825251 422.80573066 -153.97167969 393.2746582 C-154.15221201 392.52004775 -154.33274433 391.7654373 -154.51874733 390.98795986 C-156.75454507 379.89428349 -156.26775183 368.55831112 -156.26220703 357.29638672 C-156.2681983 354.86566462 -156.27500522 352.43494442 -156.28256226 350.00422668 C-156.29834651 344.10727851 -156.30466821 338.21036801 -156.30578701 332.31340302 C-156.30674167 327.51170913 -156.31087269 322.7100283 -156.31718826 317.90833855 C-156.33478159 304.25122652 -156.34403056 290.59414577 -156.34252732 276.93702234 C-156.34240745 275.83535204 -156.34240745 275.83535204 -156.34228516 274.71142578 C-156.34220339 273.97606663 -156.34212163 273.24070747 -156.34203739 272.4830647 C-156.34122586 260.58661817 -156.36033516 248.69029866 -156.38856189 236.79388881 C-156.41741288 224.53615402 -156.43109539 212.27848091 -156.42937434 200.02071136 C-156.42871445 193.15614859 -156.434028 186.29171885 -156.45573044 179.42718697 C-156.47604255 172.96164803 -156.47514487 166.49631595 -156.46069717 160.03075981 C-156.45862451 157.67394473 -156.46321642 155.31711156 -156.47541809 152.96032715 C-156.67592462 111.50640739 -142.80285773 76.96380062 -113.97167969 47.2746582 C-113.44670898 46.72390625 -112.92173828 46.1731543 -112.38085938 45.60571289 C-94.25591833 26.59824276 -72.59267158 12.22631008 -47.22167969 4.8996582 C-46.39539063 4.66102051 -45.56910156 4.42238281 -44.71777344 4.17651367 C-29.79863215 0.11486556 -15.35603826 -0.01830954 0 0 Z M-83.97167969 75.2746582 C-84.45765625 75.75128906 -84.94363281 76.22791992 -85.44433594 76.71899414 C-99.10500697 90.2773032 -108.67361183 107.06304817 -113.28417969 125.7746582 C-113.52370361 126.73359985 -113.52370361 126.73359985 -113.76806641 127.71191406 C-116.81557095 141.29098818 -116.1161358 155.6404847 -116.10107422 169.4699707 C-116.10243179 171.57737254 -116.10421372 173.68477414 -116.10638428 175.79217529 C-116.11091625 181.47806132 -116.10918657 187.16392905 -116.10600519 192.84981537 C-116.10345961 198.82232205 -116.10582523 204.79482724 -116.10739136 210.76733398 C-116.10920665 220.79386677 -116.10682355 230.82039217 -116.10205078 240.84692383 C-116.0966094 252.41104537 -116.09837251 263.97514928 -116.10387719 275.5392704 C-116.10842656 285.49807701 -116.10904994 295.45687834 -116.10643852 305.41568565 C-116.10488578 311.35047062 -116.10465436 317.28524732 -116.10797501 323.22003174 C-116.11088028 328.80154489 -116.10882953 334.38303547 -116.10308075 339.9645462 C-116.10176734 342.00339979 -116.10212292 344.0422553 -116.10434341 346.08110809 C-116.14234332 384.5413634 -108.14348468 412.08636175 -81.15917969 440.3996582 C-53.69503559 466.91290526 -23.75258876 472.4305145 13.14428711 472.41992188 C15.24357665 472.42291976 17.34286564 472.42632372 19.44215393 472.43009949 C25.10771216 472.43887949 30.77325527 472.44127505 36.43881965 472.44191527 C39.98857576 472.44262917 43.5383281 472.44476989 47.08808327 472.44741249 C59.50070055 472.45664596 71.91330713 472.46074987 84.32592773 472.45996094 C95.85020074 472.45936064 107.37442687 472.46990827 118.89868802 472.4857046 C128.83209599 472.49882947 138.76548873 472.50414277 148.69890529 472.50350553 C154.61430153 472.503252 160.52965605 472.50602235 166.44504356 472.51668358 C172.0142783 472.5264483 177.58343213 472.52638706 183.15266991 472.51916695 C185.1813621 472.51813144 187.21005956 472.52042144 189.23874283 472.5265274 C228.79641682 472.63775436 257.52059202 463.56238029 286.02832031 435.2746582 C286.88554687 434.43032227 287.74277344 433.58598633 288.62597656 432.71606445 C300.75746154 420.02828564 309.16169668 403.73528739 313.34082031 386.7746582 C313.58034424 385.81571655 313.58034424 385.81571655 313.82470703 384.83740234 C316.87221158 371.25832823 316.17277643 356.90883171 316.15771484 343.0793457 C316.15907242 340.97194387 316.16085434 338.86454227 316.1630249 336.75714111 C316.16755687 331.07125509 316.1658272 325.38538735 316.16264582 319.69950104 C316.16010023 313.72699436 316.16246585 307.75448917 316.16403198 301.78198242 C316.16584728 291.75544964 316.16346417 281.72892424 316.15869141 271.70239258 C316.15325003 260.13827103 316.15501313 248.57416712 316.16051781 237.01004601 C316.16506718 227.05123939 316.16569057 217.09243807 316.16307914 207.13363075 C316.1615264 201.19884579 316.16129499 195.26406909 316.16461563 189.32928467 C316.16752091 183.74777152 316.16547016 178.16628094 316.15972137 172.5847702 C316.15840796 170.54591662 316.15876354 168.50706111 316.16098404 166.46820831 C316.19929179 127.69637641 307.95622564 99.72967746 280.46582031 71.4621582 C266.34077915 57.76211828 249.65917577 47.63690678 230.46582031 42.9621582 C229.81838867 42.80263672 229.17095703 42.64311523 228.50390625 42.47875977 C215.2301015 39.51229033 201.34007804 40.12556227 187.82641602 40.12939453 C185.70594728 40.12639736 183.58547909 40.12299356 181.4650116 40.11921692 C175.73747983 40.11042948 170.00996303 40.10804103 164.28242517 40.10740113 C160.69499257 40.10668764 157.10756372 40.10454768 153.52013206 40.10190392 C140.97899511 40.09266788 128.43786875 40.08856684 115.89672852 40.08935547 C104.24805653 40.08995579 92.59943093 40.07940841 80.95077068 40.06361181 C70.91463929 40.05049198 60.87852297 40.04517343 50.84238309 40.04581088 C44.8638468 40.04606456 38.88535178 40.04328555 32.90682411 40.03263283 C27.27851015 40.02287674 21.65027627 40.0229236 16.0219593 40.03014946 C13.97027213 40.03118603 11.91857977 40.02888842 9.8669014 40.022789 C-27.85795092 39.91800613 -56.94764958 48.47525239 -83.97167969 75.2746582 Z " fill="#000000" transform="translate(155.9716796875,-0.274658203125)"/>
<path d="M0 0 C0.88300781 -0.02835938 1.76601563 -0.05671875 2.67578125 -0.0859375 C10.9719779 1.18377872 16.30978102 6.41984659 21.96777344 12.15356445 C22.75255569 12.93294373 23.53733795 13.712323 24.34590149 14.51531982 C26.92288021 17.07984853 29.48513687 19.65853533 32.046875 22.23828125 C33.84124132 24.0324925 35.63627529 25.82603626 37.4319458 27.61894226 C41.18709541 31.37270956 44.93540967 35.13311546 48.67822266 38.89916992 C52.99398302 43.24154495 57.32204856 47.57134674 61.65699935 51.89455825 C65.84259684 56.069345 70.01957423 60.25267069 74.19275665 64.43987083 C75.96248234 66.21410414 77.7342909 67.98626243 79.50823212 69.7562809 C81.98786344 72.23299377 84.45754589 74.71922148 86.92480469 77.20825195 C87.65526505 77.93421066 88.3857254 78.66016937 89.13832092 79.40812683 C94.99533881 85.35102628 99.25315568 90.52638429 99.3125 99.25 C99.34601563 100.38179688 99.37953125 101.51359375 99.4140625 102.6796875 C97.73223302 111.23350839 90.8782288 117.62663938 84.88134766 123.58520508 C83.74351082 124.73333679 83.74351082 124.73333679 82.58268738 125.90466309 C80.09655423 128.40895821 77.59964112 130.90215594 75.1015625 133.39453125 C73.35773834 135.14292105 71.61428516 136.89168094 69.8711853 138.64079285 C66.22642346 142.29446408 62.57607256 145.94243668 58.921875 149.58666992 C54.24731879 154.24971771 49.58884096 158.92846677 44.93464088 163.61182117 C41.34196035 167.22286944 37.73999161 170.82453911 34.13526535 174.42355919 C32.41385804 176.14481347 30.69553845 177.86916167 28.98042679 179.59668922 C26.58059182 182.0114484 24.16829191 184.41304533 21.75244141 186.81176758 C21.05192154 187.52195541 20.35140167 188.23214325 19.62965393 188.96385193 C14.68591564 193.83470543 9.79301299 197.62452988 2.78125 198.90625 C-4.19447409 198.82220513 -9.61762258 197.81538332 -14.84375 192.94921875 C-18.8566775 188.43467531 -20.60082635 184.05164941 -20.6875 178.0625 C-20.71585937 177.17949219 -20.74421875 176.29648437 -20.7734375 175.38671875 C-19.34036584 166.02317429 -12.76927694 160.29927098 -6.296875 153.96875 C-5.31522524 152.9945748 -4.33446538 152.01950212 -3.35455322 151.0435791 C-0.7921875 148.49637415 1.78196379 145.96142068 4.35888672 143.42895508 C6.9939776 140.83502476 9.61756573 138.22951527 12.2421875 135.625 C17.37952921 130.53036011 22.52939572 125.44862684 27.6875 120.375 C26.90966345 120.37261165 26.1318269 120.37022329 25.33041954 120.36776257 C6.4013085 120.30861883 -12.52767208 120.23307274 -31.45664406 120.13928509 C-40.61057 120.09432527 -49.76445703 120.05491102 -58.91845703 120.02856445 C-66.89736491 120.00558589 -74.87614964 119.97218944 -82.85495985 119.92629844 C-87.07943827 119.90236429 -91.30379471 119.88363678 -95.52833939 119.87738609 C-99.50598032 119.87133609 -103.48330913 119.85133944 -107.4608345 119.82072449 C-108.91926913 119.81194289 -110.37774454 119.80822194 -111.83620453 119.80999184 C-113.83099399 119.81164802 -115.82576957 119.79315703 -117.82046509 119.77372742 C-118.9358346 119.76911845 -120.05120411 119.76450949 -121.2003727 119.75976086 C-127.51882582 118.97859312 -131.24393815 115.91944568 -135.0546875 111.12109375 C-138.79771738 105.92502432 -139.0650346 100.61436912 -138.3125 94.375 C-136.48725644 88.17791559 -132.62289332 83.93579738 -127.3125 80.375 C-124.04186357 79.28478786 -121.62475805 79.23665359 -118.18122864 79.21678162 C-116.89815323 79.2069928 -115.61507782 79.19720398 -114.29312134 79.18711853 C-112.86834754 79.18121432 -111.44357335 79.17540388 -110.01879883 79.16967773 C-108.52083567 79.16009917 -107.02287521 79.1500891 -105.5249176 79.13967896 C-101.4549944 79.11262144 -97.3850596 79.09161646 -93.31509614 79.07167697 C-89.06296306 79.04982265 -84.81086579 79.02243125 -80.5587616 78.99562073 C-72.50529013 78.94568635 -64.45179879 78.90075028 -56.39828843 78.85759836 C-47.23029229 78.80823236 -38.06233207 78.75331187 -28.89437068 78.69791877 C-10.03378047 78.58408729 8.82684364 78.47725078 27.6875 78.375 C27.14514709 77.84152954 26.60279419 77.30805908 26.04400635 76.75842285 C20.91388927 71.70873028 15.79368014 66.64928563 10.68408585 61.57883453 C8.05736749 58.97291717 5.42709194 56.37082136 2.78808594 53.77734375 C0.23747875 51.27046275 -2.30299352 48.75369979 -4.83698273 46.23002625 C-6.26813935 44.80976685 -7.70938826 43.39970032 -9.15081787 41.98986816 C-14.7213659 36.42123131 -19.38312856 31.45920848 -20.84375 23.46875 C-20.75970513 16.49302591 -19.75288332 11.06987742 -14.88671875 5.84375 C-10.37217531 1.8308225 -5.98914941 0.08667365 0 0 Z " fill="#000000" transform="translate(275.3125,156.625)"/>
</svg>
